<?xml version="1.0" encoding="UTF-8" standalone="no"?>
<!-- Created with Inkscape (http://www.inkscape.org/) -->

<svg
   xmlns:dc="http://purl.org/dc/elements/1.1/"
   xmlns:cc="http://creativecommons.org/ns#"
   xmlns:rdf="http://www.w3.org/1999/02/22-rdf-syntax-ns#"
   xmlns:svg="http://www.w3.org/2000/svg"
   xmlns="http://www.w3.org/2000/svg"
   xmlns:sodipodi="http://sodipodi.sourceforge.net/DTD/sodipodi-0.dtd"
   xmlns:inkscape="http://www.inkscape.org/namespaces/inkscape"
   width="35"
   height="105"
   viewBox="0 0 9.2604167 27.781251"
   version="1.1"
   id="svg3687"
   inkscape:version="0.92.3 (2405546, 2018-03-11)"
   sodipodi:docname="CCNOT.svg">
  <defs
     id="defs3681" />
  <sodipodi:namedview
     id="base"
     pagecolor="#ffffff"
     bordercolor="#666666"
     borderopacity="1.0"
     inkscape:pageopacity="0.0"
     inkscape:pageshadow="2"
     inkscape:zoom="5.6"
     inkscape:cx="75.446429"
     inkscape:cy="54.910112"
     inkscape:document-units="px"
     inkscape:current-layer="layer1"
     showgrid="false"
     units="px"
     inkscape:window-width="1920"
     inkscape:window-height="1052"
     inkscape:window-x="3840"
     inkscape:window-y="0"
     inkscape:window-maximized="1" />
  <metadata
     id="metadata3684">
    <rdf:RDF>
      <cc:Work
         rdf:about="">
        <dc:format>image/svg+xml</dc:format>
        <dc:type
           rdf:resource="http://purl.org/dc/dcmitype/StillImage" />
        <dc:title></dc:title>
      </cc:Work>
    </rdf:RDF>
  </metadata>
  <g
     inkscape:label="Layer 1"
     inkscape:groupmode="layer"
     id="layer1"
     transform="translate(0,-269.21874)">
    <path
       style="opacity:1;fill:#000000;fill-opacity:1;stroke:#000000;stroke-width:0.26499999;stroke-miterlimit:4;stroke-dasharray:none;stroke-dashoffset:0;stroke-opacity:1"
       id="path815"
       sodipodi:type="arc"
       sodipodi:cx="4.5357213"
       sodipodi:cy="273.07224"
       sodipodi:rx="1.8376043"
       sodipodi:ry="1.7202535"
       sodipodi:start="1.6167302"
       sodipodi:end="1.5886563"
       d="m 4.4513427,274.79067 a 1.8376043,1.7202535 0 0 1 -1.7518344,-1.78536 1.8376043,1.7202535 0 0 1 1.894817,-1.65245 1.8376043,1.7202535 0 0 1 1.7784316,1.76217 1.8376043,1.7202535 0 0 1 -1.8698534,1.67718 l 0.032818,-1.71997 z" />
    <path
       style="opacity:1;fill:#000000;fill-opacity:1;stroke:#000000;stroke-width:0.26499999;stroke-miterlimit:4;stroke-dasharray:none;stroke-dashoffset:0;stroke-opacity:1"
       id="path815-2"
       sodipodi:type="arc"
       sodipodi:cx="4.3372836"
       sodipodi:cy="282.59738"
       sodipodi:rx="1.8376043"
       sodipodi:ry="1.7202535"
       sodipodi:start="1.6167302"
       sodipodi:end="1.5886563"
       d="m 4.252905,284.31582 a 1.8376043,1.7202535 0 0 1 -1.7518344,-1.78537 1.8376043,1.7202535 0 0 1 1.894817,-1.65245 1.8376043,1.7202535 0 0 1 1.7784316,1.76217 1.8376043,1.7202535 0 0 1 -1.8698534,1.67719 l 0.032818,-1.71998 z"
       inkscape:transform-center-x="-1.4646649"
       inkscape:transform-center-y="-6.1912169" />
    <path
       style="opacity:1;fill:#ffffff;fill-opacity:1;stroke:#000000;stroke-width:0.2;stroke-miterlimit:4;stroke-dasharray:none;stroke-dashoffset:0;stroke-opacity:1"
       id="path815-2-2"
       sodipodi:type="arc"
       sodipodi:cx="-291.99182"
       sodipodi:cy="4.2985215"
       sodipodi:rx="2.4725547"
       sodipodi:ry="2.5673988"
       sodipodi:start="1.6167302"
       sodipodi:end="1.6162514"
       d="m -292.10536,6.8632123 a 2.4725547,2.5673988 0 0 1 -2.35642,-2.6822729 2.4725547,2.5673988 0 0 1 2.5829,-2.4471368 2.4725547,2.5673988 0 0 1 2.35705,2.681687 2.4725547,2.5673988 0 0 1 -2.58234,2.4477788 l 0.11235,-2.5647469 z"
       transform="rotate(-90)" />
    <path
       style="fill:none;stroke:#000000;stroke-width:0.26458335px;stroke-linecap:butt;stroke-linejoin:miter;stroke-opacity:1"
       d="M 4.5357212,273.36368 4.2985215,294.36511"
       id="path4881"
       inkscape:connector-curvature="0" />
    <path
       style="fill:none;stroke:#000000;stroke-width:0.26458335px;stroke-linecap:butt;stroke-linejoin:miter;stroke-opacity:1"
       d="m 1.6063989,292.13355 c 5.2568697,-0.0294 5.2568697,-0.0294 5.2568697,-0.0294"
       id="path4885"
       inkscape:connector-curvature="0" />
  </g>
</svg>
